<?xml version="1.0" encoding="iso-8859-1"?>
<!-- Uploaded to: SVG Repo, www.svgrepo.com, Generator: SVG Repo Mixer Tools -->
<svg fill="#000000" version="1.1" id="Layer_1" xmlns="http://www.w3.org/2000/svg" xmlns:xlink="http://www.w3.org/1999/xlink" 
	 viewBox="0 0 512 512" xml:space="preserve">
<g>
	<g>
		<g>
			<path d="M503.467,371.2h-25.6V106.667c0-14.114-11.486-25.6-25.6-25.6H59.733c-14.114,0-25.6,11.486-25.6,25.6V371.2h-25.6
				C3.814,371.2,0,375.023,0,379.733v25.6c0,14.114,11.486,25.6,25.6,25.6h460.8c14.114,0,25.6-11.486,25.6-25.6v-25.6
				C512,375.023,508.186,371.2,503.467,371.2z M375.467,311.467V294.4V115.2h68.267v179.2v17.067v42.667h-68.267V311.467z
				 M298.667,311.467V294.4v-68.267h68.267V294.4v17.067v42.667h-68.267V311.467z M221.867,311.467V294.4v-128h68.267v128v17.067
				v42.667h-68.267V311.467z M70.767,185.967l45.167-45.167H93.867c-4.719,0-8.533-3.823-8.533-8.533
				c0-4.71,3.814-8.533,8.533-8.533h42.667c1.109,0,2.219,0.23,3.26,0.657c2.091,0.862,3.755,2.526,4.617,4.617
				c0.435,1.041,0.657,2.15,0.657,3.26v42.667c0,4.71-3.814,8.533-8.533,8.533S128,179.644,128,174.933v-22.067l-45.167,45.167
				c-1.664,1.664-3.849,2.5-6.033,2.5c-2.185,0-4.369-0.836-6.033-2.5C67.43,194.697,67.43,189.303,70.767,185.967z M213.333,217.6
				v76.8v17.067v42.667h-68.267v-42.667V294.4v-76.8H213.333z M136.533,251.733V294.4v17.067v42.667H68.267v-42.667V294.4v-42.667
				H136.533z M494.933,405.333c0,4.702-3.823,8.533-8.533,8.533H25.6c-4.71,0-8.533-3.831-8.533-8.533v-17.067h25.6H179.2v8.533
				c0,4.71,3.814,8.533,8.533,8.533h136.533c4.719,0,8.533-3.823,8.533-8.533v-8.533h136.533h25.6V405.333z"/>
			<rect x="238.933" y="311.467" width="34.133" height="25.6"/>
			<rect x="162.133" y="234.667" width="34.133" height="59.733"/>
			<rect x="162.133" y="311.467" width="34.133" height="25.6"/>
			<rect x="238.933" y="183.467" width="34.133" height="110.933"/>
			<rect x="85.333" y="311.467" width="34.133" height="25.6"/>
			<rect x="85.333" y="268.8" width="34.133" height="25.6"/>
			<rect x="392.533" y="311.467" width="34.133" height="25.6"/>
			<rect x="392.533" y="132.267" width="34.133" height="162.133"/>
			<rect x="315.733" y="243.2" width="34.133" height="51.2"/>
			<rect x="315.733" y="311.467" width="34.133" height="25.6"/>
		</g>
	</g>
</g>
</svg>